<svg width="48" height="48" viewBox="0 0 48 48" fill="none" xmlns="http://www.w3.org/2000/svg">
<path d="M28.7051 31.0648L16.9329 28.6048C16.8836 28.7001 16.8288 28.7925 16.7687 28.8814L27.4856 44.5148L28.1321 43.869L29.9554 32.5309C29.6472 32.4007 29.3737 32.2003 29.1566 31.9458C28.9396 31.6912 28.785 31.3895 28.7051 31.0646V31.0648ZM24.4106 15.6759C23.9696 16.3524 23.2084 16.8002 22.3414 16.8002C22.2079 16.8002 22.0781 16.7867 21.9506 16.7664L16.5819 25.1666L30.9253 18.9941C30.9208 18.9364 30.9081 18.8824 30.9081 18.8231C30.9081 18.7024 30.9246 18.5854 30.9441 18.4699L24.4106 15.6761V15.6759ZM24.8006 14.1452L31.7503 17.1167C31.9718 16.9436 32.2251 16.8157 32.4958 16.7402L33.6381 9.63769L29.2864 5.286L24.3881 12.9506C24.6282 13.3057 24.7705 13.7178 24.8006 14.1454V14.1452ZM39.3628 15.3624L35.0016 11.0004L34.0536 16.8894C34.2939 17.0103 34.5098 17.1745 34.6903 17.3739L39.3628 15.3624V15.3624ZM28.9136 29.5136C29.0843 29.2038 29.3295 28.9414 29.627 28.75C29.9246 28.5587 30.2651 28.4446 30.6178 28.4179L31.8703 20.6276C31.7721 20.5624 31.6843 20.4844 31.5981 20.4041L17.1722 26.6126C17.2089 26.7634 17.2344 26.9171 17.2464 27.0769L28.9136 29.5136V29.5136ZM40.5508 16.5512L35.5048 18.7224L47.955 24.0454L48 24.0004L40.5508 16.5512ZM31.5336 32.5543L30.0171 41.9826L38.8228 33.1768L32.4801 31.8523C32.2368 32.1706 31.9088 32.4139 31.5336 32.5543V32.5543ZM14.4174 30.1303C14.0987 30.1303 13.7934 30.0756 13.5077 29.9786L10.5827 34.5561L9.45244 33.4266L12.2229 29.0916C12.1544 29.0065 12.0906 28.9178 12.0317 28.8259L7.01269 30.9868L5.823 29.7971L11.3167 27.4324L1.38469 25.3594L0.02625 24.0004L0.456 23.5706L11.9094 25.9616C12.0412 25.7118 12.2098 25.4832 12.4097 25.2836L6.85069 17.1752L7.97344 16.0524L13.7812 24.5246C13.9898 24.4762 14.2031 24.4513 14.4172 24.4504C14.6625 24.4504 14.9003 24.4849 15.1275 24.5434L20.5622 16.0397C20.1197 15.5807 19.8726 14.968 19.8729 14.3304C19.8729 14.1354 19.8977 13.9464 19.9404 13.7649L13.1604 10.8662L14.3497 9.67669L20.7735 12.4239C21.0992 12.1555 21.4886 11.9753 21.9041 11.9009C22.3196 11.8264 22.7472 11.8601 23.1459 11.9987L28.1567 4.1565L24.0004 0L0 24.0004L24.0004 48.0007L26.3621 45.639L15.5649 29.8871C15.2036 30.0473 14.8127 30.1301 14.4174 30.1303V30.1303ZM33.3981 20.9634L32.1238 28.8829C32.3465 29.0618 32.5309 29.2837 32.6661 29.5354C32.8012 29.7871 32.8844 30.0633 32.9106 30.3478L40.1428 31.8576L46.7653 25.2351L34.8118 20.1244C34.4698 20.5797 33.9616 20.8814 33.3981 20.9636V20.9634Z" fill="white"/>
</svg>
