<svg width="160" height="160" viewBox="0 0 160 160" fill="none" xmlns="http://www.w3.org/2000/svg">
<g clip-path="url(#clip0_1_2)">
<rect width="160" height="160" fill="white"/>
<rect width="160" height="160" fill="#212529"/>
<path d="M90.3461 63.56C88.6475 62.6424 88.1996 60.3918 89.4466 58.918L89.7033 58.6147C90.5997 57.5552 92.106 57.2467 93.3379 57.8859C102.33 62.5517 113.051 68.8903 119.797 73.831C121.12 74.8001 121.334 76.6629 120.325 77.9564L119.656 78.8157C118.605 80.1632 116.645 80.3649 115.292 79.3224C109.024 74.4955 99.1064 68.2922 90.3461 63.56ZM89.0264 39.3814C89.0865 37.758 90.4136 36.456 92.0381 36.456H93.126C94.8206 36.456 96.1811 37.8667 96.1084 39.5598C95.0794 63.5107 91.0606 74.9599 68.4124 81.1851C67.1393 81.535 65.8652 80.9624 65.1856 79.8304C64.1192 78.054 64.8929 75.3106 66.8849 74.7405C85.4322 69.4329 88.2661 59.9423 89.0264 39.3814ZM71.7608 45.3843C72.282 43.8878 73.8151 42.956 75.3643 43.2896L75.74 43.3706C77.4265 43.7338 78.4655 45.4436 77.9176 47.0795C76.3429 51.7818 74.0654 56.711 71.3423 60.3604C70.587 61.3726 69.2349 61.6796 68.0623 61.2105L67.8875 61.1406C65.9176 60.3526 65.3342 57.7868 66.523 56.0295C68.6141 52.9384 70.451 49.1449 71.7608 45.3843ZM70.6754 87.1957C71.1518 85.6716 72.6835 84.705 74.2484 85.0226L74.9855 85.1721C76.6684 85.5136 77.7275 87.1968 77.2257 88.8389C75.5729 94.2484 73.153 99.8371 70.1241 104.024C69.3163 105.14 67.8093 105.426 66.5804 104.802L66.0307 104.523C64.2378 103.613 63.8142 101.206 64.9446 99.5435C67.3169 96.0534 69.2968 91.6069 70.6754 87.1957ZM110.653 44.8598C111.368 43.4831 112.988 42.8151 114.445 43.3468L115.503 43.733C117.293 44.386 118.03 46.5206 116.992 48.1184C114.25 52.3391 111.231 56.6348 108.535 59.9695C107.734 60.9603 106.373 61.2791 105.196 60.792C103.389 60.0443 102.783 57.7716 103.889 56.1588C106.266 52.6929 108.778 48.4707 110.653 44.8598ZM111.628 86.3279C112.337 84.9522 113.946 84.2757 115.404 84.7938L116.634 85.2307C118.433 85.8698 119.186 88.0043 118.157 89.6121C115.171 94.2775 111.807 99.131 108.824 102.796C108.02 103.785 106.664 104.107 105.48 103.634L105.403 103.603C103.548 102.861 102.914 100.541 104.053 98.9001C106.716 95.062 109.554 90.3565 111.628 86.3279ZM88.5296 79.2019C88.5989 77.5859 89.9231 76.296 91.5406 76.296H92.6409C94.3375 76.296 95.6986 77.7083 95.6239 79.4032C94.4957 104.978 90.1166 117.689 64.2033 124.235C62.9099 124.562 61.6312 123.989 60.9666 122.833C59.8792 120.941 60.7534 118.025 62.8619 117.462C84.3352 111.725 87.5857 101.186 88.5296 79.2019ZM91.8183 89.7854C93.379 89.5415 94.8516 90.5536 95.2791 92.0744C98.7371 104.373 106.292 113.347 119.544 117.065C121.741 117.682 122.703 120.815 121.496 122.752C120.834 123.814 119.652 124.312 118.439 124.002C102.062 119.823 93.4058 109.249 89.2016 93.4173C88.7574 91.7446 89.8936 90.0861 91.6035 89.8189L91.8183 89.7854ZM43.8991 44.7785C42.1836 43.7889 41.7728 41.4504 43.115 39.9941L43.452 39.6284C44.3476 38.6565 45.7747 38.3807 46.9485 38.9879C51.3319 41.2552 56.3262 44.2886 59.7892 46.9454C61.0452 47.9091 61.1759 49.7017 60.1792 50.9317L59.4808 51.7935C58.3802 53.1518 56.3501 53.2896 54.9818 52.2014C51.9389 49.7816 47.8275 47.0446 43.8991 44.7785ZM38.9798 70.8386C37.2334 69.8793 36.7855 67.529 38.1217 66.0508L38.482 65.6521C39.3652 64.6749 40.7835 64.384 41.9632 64.97C46.2672 67.108 51.1247 69.9079 54.5581 72.381C55.88 73.3331 56.0349 75.1859 54.9962 76.4409L54.2705 77.3178C53.1752 78.6413 51.1884 78.7815 49.8203 77.7426C46.8512 75.4882 42.8213 72.9489 38.9798 70.8386ZM40.1762 119.62C38.9208 118.683 38.5979 116.941 39.4067 115.599C43.345 109.067 48.3087 99.7741 52.4428 91.05C53.2843 89.2743 55.5693 88.7397 57.0936 89.9797L57.9818 90.7024C59.0241 91.5503 59.3774 92.9877 58.8323 94.2157C55.0972 102.632 50.3699 112.063 46.0476 119.822C45.1729 121.392 43.1171 121.815 41.6766 120.74L40.1762 119.62Z" fill="#242424"/>
<path d="M90.3461 59.56C88.6475 58.6424 88.1996 56.3918 89.4466 54.918L89.7033 54.6147C90.5997 53.5552 92.106 53.2467 93.3379 53.8859C102.33 58.5517 113.051 64.8903 119.797 69.831C121.12 70.8001 121.334 72.6629 120.325 73.9564L119.656 74.8157C118.605 76.1632 116.645 76.3649 115.292 75.3224C109.024 70.4955 99.1064 64.2922 90.3461 59.56ZM89.0264 35.3814C89.0865 33.758 90.4136 32.456 92.0381 32.456H93.126C94.8206 32.456 96.1811 33.8667 96.1084 35.5598C95.0794 59.5107 91.0606 70.9599 68.4124 77.1851C67.1393 77.535 65.8652 76.9624 65.1856 75.8304C64.1192 74.054 64.8929 71.3106 66.8849 70.7405C85.4322 65.4329 88.2661 55.9423 89.0264 35.3814ZM71.7608 41.3843C72.282 39.8878 73.8151 38.956 75.3643 39.2896L75.74 39.3706C77.4265 39.7338 78.4655 41.4436 77.9176 43.0795C76.3429 47.7818 74.0654 52.711 71.3423 56.3604C70.587 57.3726 69.2349 57.6796 68.0623 57.2105L67.8875 57.1406C65.9176 56.3526 65.3342 53.7868 66.523 52.0295C68.6141 48.9384 70.451 45.1449 71.7608 41.3843ZM70.6754 83.1957C71.1518 81.6716 72.6835 80.705 74.2484 81.0226L74.9855 81.1721C76.6684 81.5136 77.7275 83.1968 77.2257 84.8389C75.5729 90.2484 73.153 95.8371 70.1241 100.024C69.3163 101.14 67.8093 101.426 66.5804 100.802L66.0307 100.523C64.2378 99.6128 63.8142 97.2064 64.9446 95.5435C67.3169 92.0534 69.2968 87.6069 70.6754 83.1957ZM110.653 40.8598C111.368 39.4831 112.988 38.8151 114.445 39.3468L115.503 39.733C117.293 40.386 118.03 42.5206 116.992 44.1184C114.25 48.3391 111.231 52.6348 108.535 55.9695C107.734 56.9603 106.373 57.2791 105.196 56.792C103.389 56.0443 102.783 53.7716 103.889 52.1588C106.266 48.6929 108.778 44.4707 110.653 40.8598ZM111.628 82.3279C112.337 80.9522 113.946 80.2757 115.404 80.7938L116.634 81.2307C118.433 81.8698 119.186 84.0043 118.157 85.6121C115.171 90.2775 111.807 95.131 108.824 98.7964C108.02 99.7851 106.664 100.107 105.48 99.6336L105.403 99.6027C103.548 98.8608 102.914 96.5413 104.053 94.9001C106.716 91.062 109.554 86.3565 111.628 82.3279ZM88.5296 75.2019C88.5989 73.5859 89.9231 72.296 91.5406 72.296H92.6409C94.3375 72.296 95.6986 73.7083 95.6239 75.4032C94.4957 100.978 90.1166 113.689 64.2033 120.235C62.9099 120.562 61.6312 119.989 60.9666 118.833C59.8792 116.941 60.7534 114.025 62.8619 113.462C84.3352 107.725 87.5857 97.1858 88.5296 75.2019ZM91.8183 85.7854C93.379 85.5415 94.8516 86.5536 95.2791 88.0744C98.7371 100.373 106.292 109.347 119.544 113.065C121.741 113.682 122.703 116.815 121.496 118.752C120.834 119.814 119.652 120.312 118.439 120.002C102.062 115.823 93.4058 105.249 89.2016 89.4173C88.7574 87.7446 89.8936 86.0861 91.6035 85.8189L91.8183 85.7854ZM43.8991 40.7785C42.1836 39.7889 41.7728 37.4504 43.115 35.9941L43.452 35.6284C44.3476 34.6565 45.7747 34.3807 46.9485 34.9879C51.3319 37.2552 56.3262 40.2886 59.7892 42.9454C61.0452 43.9091 61.1759 45.7017 60.1792 46.9317L59.4808 47.7935C58.3802 49.1518 56.3501 49.2896 54.9818 48.2014C51.9389 45.7816 47.8275 43.0446 43.8991 40.7785ZM38.9798 66.8386C37.2334 65.8793 36.7855 63.529 38.1217 62.0508L38.482 61.6521C39.3652 60.6749 40.7835 60.384 41.9632 60.97C46.2672 63.108 51.1247 65.9079 54.5581 68.381C55.88 69.3331 56.0349 71.1859 54.9962 72.4409L54.2705 73.3178C53.1752 74.6413 51.1884 74.7815 49.8203 73.7426C46.8512 71.4882 42.8213 68.9489 38.9798 66.8386ZM40.1762 115.62C38.9208 114.683 38.5979 112.941 39.4067 111.599C43.345 105.067 48.3087 95.7741 52.4428 87.05C53.2843 85.2743 55.5693 84.7397 57.0936 85.9797L57.9818 86.7024C59.0241 87.5503 59.3774 88.9877 58.8323 90.2157C55.0972 98.6316 50.3699 108.063 46.0476 115.822C45.1729 117.392 43.1171 117.815 41.6766 116.74L40.1762 115.62Z" fill="#9F562D"/>
</g>
<defs>
<clipPath id="clip0_1_2">
<rect width="160" height="160" fill="white"/>
</clipPath>
</defs>
</svg>
