<svg xmlns="http://www.w3.org/2000/svg" viewBox="0 0 360 360">
    <defs>
        <style>.cls-1{fill:rgb(44, 44, 44);}.cls-2{fill:#333;}.cls-3,.cls-4,.cls-5{fill:none;stroke-miterlimit:10;stroke-width:14px;}.cls-3{stroke:#333;}.cls-4{stroke:#534741;}.cls-5{stroke:#736357;}.cls-6{fill:#534741;}</style>
    </defs>
    <g id="Layer_7" data-name="Layer 7">
        <rect class="cls-1" width="360" height="360"/>
        <polygon class="cls-2" points="113.81 324.65 100.48 329.25 108.33 320.41 121.46 315.97 113.81 324.65"/>
        <polygon class="cls-2" points="173.45 55.84 164.06 55.84 164.43 50.34 173.49 45.15 173.45 55.84"/>
    </g>
    <g id="Layer_10" data-name="Layer 10">
        <polygon class="cls-2" points="300.21 63.67 291.84 61.33 301.44 54.53 301.44 54.53 300.21 63.67"/>
    </g>
    <g id="Layer_5" data-name="Layer 5">
        <g id="Layer_9" data-name="Layer 9">
            <polygon class="cls-2" points="52.11 155.03 38.96 155.36 48.65 146.65 48.65 146.65 52.11 155.03"/>
        </g>
        <polyline class="cls-3" points="107.08 326.91 48.72 161.94 141.21 157.88 116.89 244.46 263.13 244.57"/>
        <polyline class="cls-3" points="119.63 234.92 168.13 62.46 255.7 230.13 298.63 63.05"/>
        <g id="Layer_4" data-name="Layer 4">
            <polyline class="cls-4" points="114.78 318.2 58.28 153.23 147.83 149.16 124.28 235.74 265.87 235.86"/>
        </g>
        <g id="Layer_6" data-name="Layer 6">
            <polyline class="cls-5" points="133.22 228.21 175.63 64.74 261.23 232.41 308.2 56.34"/>
        </g>
        <g id="Layer_8" data-name="Layer 8">
            <polygon class="cls-6" points="138.91 234.35 125.16 231.44 126.44 226.39 140.89 226.39 138.91 234.35"/>
        </g>
        <g id="Layer_11" data-name="Layer 11">
            <polygon class="cls-1" points="173.49 45.15 164.06 50.49 165.21 43.66 169.41 41.85 173.49 45.15"/>
        </g>
        <text/>
    </g>
</svg>