<svg xmlns="http://www.w3.org/2000/svg" viewBox="0 0 360 360">
    <defs>
        <style>.cls-1{isolation:isolate;}.cls-2{fill:transparent;}.cls-3{mix-blend-mode:overlay;}.cls-4{fill:transparent;}.cls-5{fill:#aa6735;}</style>
    </defs>
    <g class="cls-1">
        <g id="Layer_2" data-name="Layer 2">
            <g id="Layer_7" data-name="Layer 7">
                <rect class="cls-2" width="360" height="360"/>
            </g>
            <g id="Layer_13" data-name="Layer 13">
                <g class="cls-3">
                    <path class="cls-4" d="M313.57,55.13l-7.69-2a7.21,7.21,0,0,0-8.8,5.19L260.13,203.71,190.68,67.29c-6-11.69-23.16-10-26.7,2.65l-20.07,71.55L60.8,145.3a14.39,14.39,0,0,0-12.91,19.2l53.72,151.39a13,13,0,0,0,16.58,7.86h0a11.46,11.46,0,0,0,7-14.53L79.35,176a7.2,7.2,0,0,1,6.48-9.53l51-2.31L118.2,231.92A14.4,14.4,0,0,0,132,250.15l125.43.47a14.4,14.4,0,0,0,14-10.66L318.7,64A7.2,7.2,0,0,0,313.57,55.13ZM238.43,226.82H153a7.3,7.3,0,0,1-7-9.17L174.3,105.91a7.16,7.16,0,0,1,13.36-1.56l57.15,111.74A7.33,7.33,0,0,1,238.43,226.82Z"/>
                </g>
                <path class="cls-5" d="M306.57,48.14l-7.69-2a7.21,7.21,0,0,0-8.8,5.19L253.13,196.71,183.68,60.29c-6-11.68-23.16-10-26.7,2.65l-20.07,71.55L53.8,138.3a14.39,14.39,0,0,0-12.91,19.2L94.61,308.89a13,13,0,0,0,16.58,7.86h0a11.46,11.46,0,0,0,7-14.53L72.35,169a7.2,7.2,0,0,1,6.48-9.54l51-2.3L111.2,224.92A14.4,14.4,0,0,0,125,243.15l125.43.47a14.4,14.4,0,0,0,14-10.66L311.7,57A7.19,7.19,0,0,0,306.57,48.14ZM231.43,219.82H146a7.3,7.3,0,0,1-7-9.17L167.3,98.91a7.16,7.16,0,0,1,13.36-1.56l57.15,111.74A7.33,7.33,0,0,1,231.43,219.82Z"/>
            </g>
        </g>
    </g>
</svg>